<svg width="25" height="24" viewBox="0 0 25 24" fill="none" xmlns="http://www.w3.org/2000/svg">
<path fill-rule="evenodd" clip-rule="evenodd" d="M4.5 5C4.5 3.34315 5.84315 2 7.5 2H17.5C19.1569 2 20.5 3.34315 20.5 5V5.97076C20.5 6.93962 20.0321 7.84883 19.2437 8.41196L14.2205 12L19.2437 15.588C20.0321 16.1512 20.5 17.0604 20.5 18.0292V19C20.5 20.6569 19.1569 22 17.5 22H7.5C5.84315 22 4.5 20.6569 4.5 19V18.0292C4.5 17.0604 4.9679 16.1512 5.75629 15.588L10.7795 12L5.75629 8.41196C4.9679 7.84883 4.5 6.93962 4.5 5.97076V5ZM12.5 10.7711L18.0812 6.7845C18.344 6.59679 18.5 6.29372 18.5 5.97076V5C18.5 4.44772 18.0523 4 17.5 4H7.5C6.94772 4 6.5 4.44772 6.5 5V5.97076C6.5 6.29372 6.65597 6.59679 6.91876 6.7845L12.5 10.7711ZM12.5 13.2289L6.91876 17.2155C6.65597 17.4032 6.5 17.7063 6.5 18.0292V19C6.5 19.5523 6.94772 20 7.5 20H17.5C18.0523 20 18.5 19.5523 18.5 19V18.0292C18.5 17.7063 18.344 17.4032 18.0812 17.2155L12.5 13.2289Z" fill="#171717"/>
<path d="M16.5 20H8.5V19.5772C8.5 19.22 8.69054 18.8899 8.99987 18.7113L11.4997 17.2675C12.1187 16.91 12.8813 16.91 13.5003 17.2675L16.0001 18.7113C16.3095 18.8899 16.5 19.22 16.5 19.5772V20Z" fill="#171717"/>
</svg>
